<?xml version="1.0" encoding="UTF-8"?>
<svg xmlns="http://www.w3.org/2000/svg" width="1200" height="630" viewBox="0 0 1200 630">
  <defs>
    <radialGradient id="bgGradient" cx="30%" cy="30%" r="80%">
      <stop offset="0%" stop-color="#0f2a1e" stop-opacity="1"/>
      <stop offset="45%" stop-color="#050e0a" stop-opacity="1"/>
      <stop offset="100%" stop-color="#000000" stop-opacity="1"/>
    </radialGradient>
    <radialGradient id="glowGradient" cx="75%" cy="85%" r="50%">
      <stop offset="0%" stop-color="#22d3ee" stop-opacity="0.15"/>
      <stop offset="100%" stop-color="#22d3ee" stop-opacity="0"/>
    </radialGradient>
    <linearGradient id="dividerGradient" x1="0%" y1="0%" x2="0%" y2="100%">
      <stop offset="0%" stop-color="#4ade80" stop-opacity="0"/>
      <stop offset="50%" stop-color="#4ade80" stop-opacity="1"/>
      <stop offset="100%" stop-color="#4ade80" stop-opacity="0"/>
    </linearGradient>
    <linearGradient id="subGradient" x1="0%" y1="0%" x2="100%" y2="100%">
      <stop offset="0%" stop-color="#4ade80"/>
      <stop offset="100%" stop-color="#22d3ee"/>
    </linearGradient>
    <radialGradient id="logoGlow" cx="50%" cy="50%" r="50%">
      <stop offset="0%" stop-color="#4ade80" stop-opacity="0.4"/>
      <stop offset="70%" stop-color="#4ade80" stop-opacity="0"/>
    </radialGradient>
    <linearGradient id="pillBorder" x1="0%" y1="0%" x2="100%" y2="0%">
      <stop offset="0%" stop-color="#4ade80" stop-opacity="0.4"/>
      <stop offset="100%" stop-color="#22d3ee" stop-opacity="0.4"/>
    </linearGradient>
  </defs>

  <rect width="1200" height="630" fill="url(#bgGradient)"/>
  <rect width="1200" height="630" fill="url(#glowGradient)"/>

  <g opacity="0.04" stroke="#4ade80" stroke-width="1">
    <line x1="0" y1="158" x2="1200" y2="158"/>
    <line x1="0" y1="315" x2="1200" y2="315"/>
    <line x1="0" y1="472" x2="1200" y2="472"/>
    <line x1="300" y1="0" x2="300" y2="630"/>
    <line x1="600" y1="0" x2="600" y2="630"/>
    <line x1="900" y1="0" x2="900" y2="630"/>
  </g>

  <g opacity="0.5">
    <line x1="900" y1="0" x2="1200" y2="300" stroke="#4ade80" stroke-width="1" stroke-dasharray="4,6" opacity="0.2"/>
  </g>

  <!-- Logo glow backdrop, centered at (200, 190) to align with title -->
  <circle cx="200" cy="190" r="145" fill="url(#logoGlow)"/>

  <!-- LOGO (vector) — 240x240, positioned so its center is at (200, 190) -->
  <g transform="translate(80, 70) scale(0.469)">
    <!-- Rounded black square background -->
    <rect width="512" height="512" rx="110" fill="#000000"/>
    <!-- Shield outline (rounded top, pointed bottom) -->
    <path d="M256 82 L400 140 L400 280 Q400 385 256 440 Q112 385 112 280 L112 140 Z"
          fill="none" stroke="#4ade80" stroke-width="34" stroke-linejoin="round" stroke-linecap="round"/>
    <!-- Arrow stem -->
    <path d="M256 200 L256 288" stroke="#ffffff" stroke-width="36" stroke-linecap="round"/>
    <!-- Arrow head -->
    <path d="M212 244 L256 200 L300 244" stroke="#ffffff" stroke-width="36" stroke-linecap="round" stroke-linejoin="round" fill="none"/>
    <!-- Short base line under arrow -->
    <line x1="220" y1="315" x2="292" y2="315" stroke="#4ade80" stroke-width="22" stroke-linecap="round"/>
  </g>

  <!-- BRAND TITLE centered vertically at y=190 (matches logo center). B4cKuP baseline ≈ y=220 means visual center ≈ y=190. -->
  <text x="355" y="220"
        font-family="'Space Grotesk', -apple-system, BlinkMacSystemFont, 'Segoe UI', Roboto, sans-serif"
        font-size="96" font-weight="700" letter-spacing="-2" fill="#f1f5f9">B4cKuP</text>

  <rect x="796" y="143" width="4" height="90" fill="url(#dividerGradient)" rx="2"/>

  <text x="824" y="220"
        font-family="'Space Grotesk', -apple-system, BlinkMacSystemFont, 'Segoe UI', Roboto, sans-serif"
        font-size="96" font-weight="300" letter-spacing="8" fill="url(#subGradient)">T8L</text>

  <text x="355" y="275"
        font-family="'Space Grotesk', -apple-system, BlinkMacSystemFont, 'Segoe UI', Roboto, sans-serif"
        font-size="22" font-weight="400" fill="#4ade80" letter-spacing="4">BACKUP TRACKING TOOL</text>

  <text x="600" y="400" text-anchor="middle"
        font-family="'Space Grotesk', -apple-system, BlinkMacSystemFont, 'Segoe UI', Roboto, sans-serif"
        font-size="38" font-weight="500" fill="#f1f5f9">Track, manage and monitor all your backups</text>

  <g transform="translate(600, 470)">
    <g transform="translate(-390, 0)">
      <rect x="0" y="0" width="240" height="52" rx="26" fill="#0a1f15" stroke="url(#pillBorder)" stroke-width="1.5"/>
      <g transform="translate(22, 16) scale(0.85)">
        <path d="M12 21s-7-4.5-7-10a5 5 0 0 1 9-3 5 5 0 0 1 9 3c0 5.5-7 10-7 10z"
              fill="none" stroke="#4ade80" stroke-width="2" stroke-linecap="round" stroke-linejoin="round"/>
      </g>
      <text x="58" y="33"
            font-family="'Space Grotesk', sans-serif"
            font-size="18" font-weight="500" fill="#f1f5f9">Free &amp; Open Source</text>
    </g>

    <g transform="translate(-125, 0)">
      <rect x="0" y="0" width="250" height="52" rx="26" fill="#0a1f15" stroke="url(#pillBorder)" stroke-width="1.5"/>
      <g transform="translate(22, 16) scale(0.85)">
        <rect x="2" y="3" width="20" height="14" rx="2" fill="none" stroke="#22d3ee" stroke-width="2"/>
        <line x1="8" y1="21" x2="16" y2="21" stroke="#22d3ee" stroke-width="2" stroke-linecap="round"/>
        <line x1="12" y1="17" x2="12" y2="21" stroke="#22d3ee" stroke-width="2"/>
      </g>
      <text x="58" y="33"
            font-family="'Space Grotesk', sans-serif"
            font-size="18" font-weight="500" fill="#f1f5f9">Win · macOS · Linux</text>
    </g>

    <g transform="translate(150, 0)">
      <rect x="0" y="0" width="240" height="52" rx="26" fill="#0a1f15" stroke="url(#pillBorder)" stroke-width="1.5"/>
      <g transform="translate(22, 16) scale(0.85)">
        <path d="M12 2 L20 5 L20 12 C20 17 16 21 12 22 C8 21 4 17 4 12 L4 5 Z"
              fill="none" stroke="#4ade80" stroke-width="2" stroke-linejoin="round"/>
        <path d="M9 12 L11 14 L15 10" stroke="#4ade80" stroke-width="2" stroke-linecap="round" stroke-linejoin="round" fill="none"/>
      </g>
      <text x="58" y="33"
            font-family="'Space Grotesk', sans-serif"
            font-size="18" font-weight="500" fill="#f1f5f9">100% Local &amp; Private</text>
    </g>
  </g>

  <text x="600" y="580" text-anchor="middle"
        font-family="'Space Grotesk', sans-serif"
        font-size="20" font-weight="500" fill="#52525b" letter-spacing="2">backup-tool.app</text>
</svg>
